<?xml version="1.0" encoding="UTF-8" standalone="no"?>
<!DOCTYPE svg PUBLIC "-//W3C//DTD SVG 1.1//EN" "http://www.w3.org/Graphics/SVG/1.1/DTD/svg11.dtd">
<svg width="100%" height="100%" viewBox="0 0 660 661" version="1.1" xmlns="http://www.w3.org/2000/svg" xmlns:xlink="http://www.w3.org/1999/xlink" xml:space="preserve" xmlns:serif="http://www.serif.com/" style="fill-rule:evenodd;clip-rule:evenodd;stroke-linejoin:round;stroke-miterlimit:1.41421;">
    <g id="Artboard1" transform="matrix(1,0,0,1.01797,-335.606,-71.5022)">
        <rect x="335.606" y="70.24" width="659.52" height="648.369" style="fill:none;"/>
        <clipPath id="_clip1">
            <rect x="335.606" y="70.24" width="659.52" height="648.369"/>
        </clipPath>
        <g clip-path="url(#_clip1)">
            <g transform="matrix(-1,-1.20303e-16,1.22465e-16,-0.98235,1331.34,787.356)">
                <path d="M972.378,279.494C987.061,316.829 995.126,357.48 995.126,400C995.126,581.999 847.366,729.76 665.366,729.76C546.91,729.76 442.958,667.166 384.811,573.278L404.612,563.377L404.612,563.377L455.344,538.011C455.344,538.011 506.076,512.645 506.076,512.645L506.076,512.645C506.076,512.645 556.809,487.279 556.809,487.279L607.541,461.913C607.541,461.913 658.273,436.546 658.273,436.546L658.273,436.546L709.006,411.18L759.738,385.814C759.738,385.814 810.47,360.448 810.47,360.448L810.47,360.448L861.202,335.082L911.935,309.716C911.935,309.716 962.667,284.35 962.667,284.35L962.667,284.35L972.378,279.494ZM348.106,490.166L369.099,479.669C369.099,479.669 404.612,461.913 404.612,461.913L404.612,461.913L506.076,411.18L538.535,394.951L570.995,411.18L599.366,425.366L570.995,439.552L520.262,464.918L520.262,464.918L520.262,464.918L469.53,490.284L418.798,515.65L418.798,515.65L418.798,515.65L368.065,541.016L368.065,541.016L367.398,541.35C359.613,524.984 353.137,507.877 348.106,490.166ZM335.644,394.97L368.065,411.18L396.437,425.366L368.065,439.552L368.065,439.552C368.065,439.552 347.772,449.698 347.772,449.698L347.772,449.698L339.951,453.609C337.092,436.16 335.606,418.252 335.606,400C335.606,398.32 335.619,396.643 335.644,394.97ZM350.735,301.05L368.065,309.716L418.798,335.082L469.53,360.448L497.902,374.634L469.53,388.82L469.53,388.82L437.071,405.049L404.612,388.82L338.55,355.789C341.073,336.997 345.181,318.704 350.735,301.05ZM417.72,182.346L418.798,182.885L469.53,208.251L520.262,233.617L570.995,258.984L621.727,284.35L672.459,309.716L723.191,335.082L751.563,349.268L725.297,362.401L723.191,363.454L723.191,363.454L672.459,388.82L672.459,388.82L672.459,388.82L640,405.049L404.612,287.355L363.629,266.863C377.324,235.901 395.647,207.435 417.72,182.346ZM444.581,155.143C503.052,102.38 580.485,70.24 665.366,70.24C791.935,70.24 901.944,141.701 957.214,246.442L926.12,261.989L875.388,287.355L824.656,312.721L824.656,312.721L824.656,312.721L792.197,328.951L658.273,261.989L607.541,236.623L506.076,185.891L455.344,160.524L444.581,155.143Z"/>
            </g>
        </g>
    </g>
</svg>
