<?xml version="1.0" encoding="UTF-8" standalone="no"?>
<svg
   xmlns:dc="http://purl.org/dc/elements/1.1/"
   xmlns:cc="http://creativecommons.org/ns#"
   xmlns:rdf="http://www.w3.org/1999/02/22-rdf-syntax-ns#"
   xmlns:svg="http://www.w3.org/2000/svg"
   xmlns="http://www.w3.org/2000/svg"
   xmlns:sodipodi="http://sodipodi.sourceforge.net/DTD/sodipodi-0.dtd"
   xmlns:inkscape="http://www.inkscape.org/namespaces/inkscape"
   width="203.15524"
   height="203.15524"
   viewBox="0 0 203.15524 203.15524"
   version="1.1"
   xml:space="preserve"
   style="clip-rule:evenodd;fill-rule:evenodd;stroke-linejoin:round;stroke-miterlimit:1.41420996"
   id="svg3767"
   sodipodi:docname="logo.svg"
   inkscape:version="0.92.4 (unknown)"><metadata
   id="metadata3773"><rdf:RDF><cc:Work
       rdf:about=""><dc:format>image/svg+xml</dc:format><dc:type
         rdf:resource="http://purl.org/dc/dcmitype/StillImage" /><dc:title></dc:title></cc:Work></rdf:RDF></metadata><defs
   id="defs3771" /><sodipodi:namedview
   pagecolor="#ffffff"
   bordercolor="#666666"
   borderopacity="1"
   objecttolerance="10"
   gridtolerance="10"
   guidetolerance="10"
   inkscape:pageopacity="0"
   inkscape:pageshadow="2"
   inkscape:window-width="1916"
   inkscape:window-height="1033"
   id="namedview3769"
   showgrid="false"
   inkscape:zoom="1.0328125"
   inkscape:cx="101.57764"
   inkscape:cy="51.155622"
   inkscape:window-x="0"
   inkscape:window-y="22"
   inkscape:window-maximized="0"
   inkscape:current-layer="svg3767" />
    <g
   transform="matrix(-0.308035,0,0,-0.308035,306.53364,224.79162)"
   id="g3765">
        <path
   d="m 972.378,279.494 c 14.683,37.335 22.748,77.986 22.748,120.506 0,181.999 -147.76,329.76 -329.76,329.76 -118.456,0 -222.408,-62.594 -280.555,-156.482 l 19.801,-9.901 v 0 l 50.732,-25.366 c 0,0 50.732,-25.366 50.732,-25.366 v 0 c 0,0 50.733,-25.366 50.733,-25.366 l 50.732,-25.366 c 0,0 50.732,-25.367 50.732,-25.367 v 0 l 50.733,-25.366 50.732,-25.366 c 0,0 50.732,-25.366 50.732,-25.366 v 0 l 50.732,-25.366 50.733,-25.366 c 0,0 50.732,-25.366 50.732,-25.366 v 0 z m -624.272,210.672 20.993,-10.497 c 0,0 35.513,-17.756 35.513,-17.756 v 0 l 101.464,-50.733 32.459,-16.229 32.46,16.229 28.371,14.186 -28.371,14.186 -50.733,25.366 v 0 0 l -50.732,25.366 -50.732,25.366 v 0 0 l -50.733,25.366 v 0 l -0.667,0.334 c -7.785,-16.366 -14.261,-33.473 -19.292,-51.184 z m -12.462,-95.196 32.421,16.21 28.372,14.186 -28.372,14.186 v 0 c 0,0 -20.293,10.146 -20.293,10.146 v 0 l -7.821,3.911 c -2.859,-17.449 -4.345,-35.357 -4.345,-53.609 0,-1.68 0.013,-3.357 0.038,-5.03 z m 15.091,-93.92 17.33,8.666 50.733,25.366 50.732,25.366 28.372,14.186 -28.372,14.186 v 0 L 437.071,405.049 404.612,388.82 338.55,355.789 c 2.523,-18.792 6.631,-37.085 12.185,-54.739 z m 66.985,-118.704 1.078,0.539 50.732,25.366 50.732,25.366 50.733,25.367 50.732,25.366 50.732,25.366 50.732,25.366 28.372,14.186 -26.266,13.133 -2.106,1.053 v 0 l -50.732,25.366 v 0 0 L 640,405.049 404.612,287.355 363.629,266.863 c 13.695,-30.962 32.018,-59.428 54.091,-84.517 z m 26.861,-27.203 C 503.052,102.38 580.485,70.24 665.366,70.24 c 126.569,0 236.578,71.461 291.848,176.202 l -31.094,15.547 -50.732,25.366 -50.732,25.366 v 0 0 l -32.459,16.23 -133.924,-66.962 -50.732,-25.366 -101.465,-50.732 -50.732,-25.367 z"
   style="fill:#E97149"
   id="path3763"
   inkscape:connector-curvature="0" />
    </g>
</svg>
