<!-- Created with Inkscape (http://www.inkscape.org/) -->
<svg xmlns:rdf="http://www.w3.org/1999/02/22-rdf-syntax-ns#" xmlns="http://www.w3.org/2000/svg" height="50" width="50" version="1.1" xmlns:cc="http://creativecommons.org/ns#" xmlns:dc="http://purl.org/dc/elements/1.1/">
<g transform="scale(0.01)translate(2500,2500)">
<circle id="circ_0" r="2115" cx="10.989010989010989" cy="10.989010989010989" fill="#d4dadc" display="block"></circle>
<path fill="#fcafad" d="M-358.7267647425917,1356.5475286504359L-382.77007567826445,1318.590593806613L-379.5317144295171,1250.9133766648076L-338.68987940267374,1259.2196284386023L-319.0414458661407,1311.0368783811111ZM-622.6948898868401,1122.352253405479L-651.4438463674817,1123.901290435338L-666.2993874890903,1106.6391611275667L-644.5480864476276,1090.3602067240813L-656.8791575337078,1048.2899156707028L-640.5624089063174,1039.301087844846L-614.0792655659747,1079.0164308355295L-605.5482028516165,1110.2276112317968ZM-997.44843137825,1860.6590393198335L-978.2295325217538,1853.0077579154465L-978.2295325217538,1853.0077579154465L-997.2044106771286,1835.792212312272L-994.6208004497437,1835.4604383382448L-984.7898700974142,1802.176330308064L-946.3957272269612,1809.6364823969623L-906.7438811059033,1815.8413184330755L-865.8751227904565,1820.556066883209L-823.8822258432081,1823.5015447010578L-794.0060965845659,1813.5273348765377L-765.4273056640637,1801.7545749856874L-810.7280165841241,1732.787755926696L-864.6058723443917,1733.8895358773877L-917.72548687686,1731.2349196511768L-1003.1558454694034,1659.8950837428067L-1031.9212430843722,1584.4106862364397L-1099.4216653558456,1543.5824519182463L-1149.9421075043635,1554.268197744937L-1207.9084803031221,1527.2894740505546L-1226.5023577035845,1497.1811968691954L-1182.2506524810858,1479.550272538042L-1172.1916514036066,1429.4082527445507L-1185.1335699112722,1392.0599709011879L-1162.5713497299548,1357.8850475160557L-1143.1606967425887,1323.1375450880337L-1113.5165316082976,1313.5431734932686L-1085.0147065978151,1302.4954373139894L-1057.107972074812,1300.393410571813L-1020.5358911487812,1284.4260304885593L-986.1824984021519,1266.3565543006118L-977.0413588998807,1244.5446967333264L-937.3206534826286,1259.1464452874407L-896.1862734224816,1272.1395225375122L-878.3027690885427,1258.2178118646016L-837.0675308563567,1258.5765234903924L-860.9633355402425,1227.2880614746673L-884.4655492185358,1218.355389095193L-907.4786717241616,1188.0140931194153L-875.6462131407836,1184.4317642577037L-828.1563743052759,1199.879583674104L-801.4616586194086,1178.7848172376773L-768.3189510582046,1166.5734881547442L-733.0670962751856,1172.1710177964517L-697.4350812456937,1176.1672659296025L-672.2792972504415,1158.194495598272L-651.0917108039049,1170.4320455603422L-624.0017193870004,1151.904070289009L-598.6646180056412,1132.6464855951378L-597.0516591640189,1094.3641809103187L-621.815313717436,1058.2911037650908L-627.7779800041106,1010.4338417459353L-636.8832183328868,992.04749305676L-628.4960521716358,965.5128103731867L-609.1266916711093,928.2313275925297L-591.1678106063981,960.5349102366614L-604.6916896538444,969.2190319660575L-614.0961989363284,995.0421443798599L-599.2042335697492,1019.3416192532708L-580.3140754098439,1030.1944934063056L-550.3859754197077,1072.7592320018966L-525.32073384494,1124.744765338019L-524.2958666540268,1160.8080225324043L-545.6199571137338,1199.0991680950915L-570.4979175917505,1238.2710311647659L-623.0118219110692,1252.2696894674991L-576.6144452664637,1283.448465186359L-602.1649172528602,1307.1211372672462L-549.5604029765764,1367.5225670189357L-494.825472023372,1386.9183535939726L-436.34479993345866,1402.9095879684141L-406.3312337441361,1421.6273708854394L-374.15938889587767,1439.9223490980069L-358.0018161963309,1410.8963850114703L-344.008699216376,1382.723365824867L-291.76056578701144,1388.5711638647417L-286.1804260273822,1357.978570935415L-245.23550297259888,1334.2394821912947L-208.17728428683856,1308.957316330304L-223.94085215471907,1272.6185889307535L-267.30214352106145,1283.6559836792803L-276.9617001934121,1247.1732189635982L-253.70399261864796,1218.4792901431117L-232.8584202906528,1190.207069067214L-202.77911095435127,1177.2748672636662L-174.11368186722956,1163.3331321123444L-132.35346953568384,1122.3766675530608L-133.4983382835315,1086.7067703531754L-115.7823098182128,1075.3478139107553L-91.64491075357299,1039.0580702899897L-65.7013504378226,1048.6946290150213L-16.015611623868825,1035.3738828980838L7.6832631015469826,1038.8515784506376L64.27691800858474,1014.3218446522498L86.06758657651885,1009.6382151613262L96.87401063836766,1028.7095642086042L121.53654601064189,1009.2634888010416L174.6849509457822,1009.4741432699715L212.73882196385603,1025.8541786902956L244.07528497411832,1026.3367695911854L299.24982548550673,1004.6423339339458L313.1613562425614,985.5208891932176L351.572732976205,1018.1175549935198L367.11357513984507,1003.5537863594391L401.6402280891184,989.9855404720466L434.9121967383116,975.2646913124856L468.50812145313614,961.9027622967544L500.95722709867084,947.4620711701064L537.1414195921519,949.5719571293253L552.0526221400788,980.4993840113009L581.3711381378612,1001.1694323365184L601.5464112302325,989.5370250090837L643.1002594080865,1007.2919698412647L635.405812187597,1049.1493691320147L613.9319911522006,1061.7946971728757L617.4441126806087,1082.4627184713756L601.1659260490823,1100.9771525079768L626.1656701054002,1111.7163158960025L672.9829339145559,1060.2805965786547L711.733547860992,1056.3240712096529L735.7962357613816,1031.3984397546567L780.52369670667,1011.0240908631104L828.3702612465521,1010.9871069871938L854.9899312542078,1024.4327570792427L897.3340065988718,1030.9315554561301L941.2884144216337,1041.4574305373087L989.1344783050592,1008.000467482515L1006.4216149290335,1046.7071652577545L1047.895195040886,1049.271842084136L1090.105178270138,1036.9087067659475L1099.1554502234628,1060.7761714181502L1143.0376808184387,1085.1063017577233L1165.2951502175479,1072.8449509599984L1194.2162296457827,1083.8072166949862L1224.1887064254688,1093.4172873795692L1247.9872308326926,1089.4042525434L1302.5718653954627,1092.4282382942522L1303.8119507849633,1120.3490034015622L1359.144400115403,1131.5786157427572L1380.186704950633,1141.2313488498985L1374.1066178618,1170.8865175576325L1409.5889572126116,1216.2378769977533L1431.7958235864662,1212.8131121884403L1444.4381589058323,1258.3438127144218L1459.9245057371174,1304.1380166747492L1481.231023340467,1318.398212724451L1503.6926082348414,1331.638671228532L1508.9094812156723,1364.3064496735424L1437.4305824927199,1420.5290332985574L1390.540699194337,1432.1350525879195L1342.0684602023375,1461.3819202692614L1282.3444028105332,1513.746886718252L1241.3042380030113,1588.3468795628535L1189.6657672859935,1582.5698248808021L1145.482741747781,1612.4793742780068L1097.8986191550837,1642.4649179314872L1016.4547464146151,1774.9510485148626L986.1286487138475,1797.811650833853L990.1555596644041,1829.3432597239212L997.44843137825,1860.6590393198335L939.9983382830819,1890.332922499786L876.8201884341385,1920.4535378435633L806.4944362864669,1951.0310500093306L726.8634150866437,1982.075934385491L634.3299970323458,2013.5989890557853L581.2997881376212,2029.543295959141L521.9479376058254,2045.6113473215196L453.78108076725465,2061.80458933412L371.9597216778901,2078.124490811569L264.04789964543534,2094.57254363614L187.07731460456014,2102.8450994359714L132.4138652082486,2106.993593289298L93.67685239754945,2109.07090473185L0,2111.1502632123406L0,2111.1502632123406L0,2111.1502632123406L-93.67685239754945,2109.07090473185L-132.4138652082486,2106.993593289298L-187.07731460456014,2102.8450994359714L-264.04789964543534,2094.57254363614L-371.9597216778901,2078.124490811569L-453.78108076725465,2061.80458933412L-521.9479376058254,2045.6113473215196L-581.2997881376212,2029.543295959141L-634.3299970323458,2013.5989890557853L-726.8634150866437,1982.075934385491L-806.4944362864669,1951.0310500093306L-876.8201884341385,1920.4535378435633L-939.9983382830819,1890.332922499786ZM-698.1134805105999,746.206075288858L-707.3916296830475,759.8801250451157L-739.9389659676382,752.6417934353314L-745.2844524909702,735.5969011781015L-740.9288213874279,714.841058054239L-724.7932439100487,708.5121839282655ZM-641.679866290919,697.0822545854265L-637.4078368127018,679.2409958453195L-614.6556306133845,688.586610703035ZM736.4170469870284,661.0984211414689L742.6197556315291,642.453578373976L758.3760871141973,650.6869980668355L753.4926402201249,661.0069601823868ZM1627.956719274552,631.8170659421435L1619.1517827096732,629.1546705553412L1616.9086763905304,584.7910329143901L1658.6873697135093,583.2872263344987L1653.3216605798268,604.7545738599086ZM1859.198250653631,720.9007215769825L1833.0804616167256,708.189808378626L1844.6833029384484,686.4970982347444L1907.4178748992317,640.944558980217L1927.7407598024197,611.960835326329L1947.5893785381552,630.3349597202578L1912.3986562504508,669.0941011778075L1900.1083979251896,675.5876586880066L1879.2331975928948,707.8519906318388ZM1958.9854352062878,630.1495274790639L1966.2941476216324,606.2759505476895L1955.540172298988,586.3991642655263L1967.9569626119944,574.1226369314332L1976.864478331845,547.6673335379892L1967.770772542441,507.5491719822972L1982.3901941378344,509.03412745952676L1984.7997767032348,545.2657068772895L1997.6019967345262,559.3280351104213L2018.696433452852,557.7858562216195L2004.5878154013387,584.9021222154845L1990.0738004748705,597.1503495526116L1970.437879024626,623.2745578194576ZM521.6849697130515,309.4118430298992L506.6942546930718,301.33191067457904L499.7697515660229,264.57682201808313L502.2712102636511,255.6788787380486L513.93934185704,240.0502882402702L515.555943649971,232.12603546238572L510.72617453999806,207.31121386403242L517.4013891376554,192.7867987771533L538.9748799767741,187.5135412418667L556.0955940781846,173.31575135197872L570.1194811785424,155.16241234500865L574.6089553568022,142.57352449381116L584.0355684721067,160.74585153111616L588.025641220616,181.01309623804804L575.662782148921,204.03104505955437L574.3331088664958,214.38292809651895L562.1641580972807,245.604360256963L541.7853808271785,301.215842021707ZM1644.996050839765,549.4794400209094L1628.3482163786143,531.4659614597595L1615.3744122548342,542.8894620517863L1584.899727005199,526.9038006254924L1579.9025841034006,516.2334655772526L1580.1440566708657,495.0111164045347L1565.5108031396803,485.26120240993714L1550.6115773175932,459.91986430129566L1543.5149817069023,472.2229936307586L1531.2017498760076,435.29292164083677L1500.7123679388096,416.43366553764986L1479.7155747985562,416.8629527223645L1449.797383432179,426.14117372629454L1438.866825464606,424.499755727486L1414.7694073788734,434.87443531836624L1405.5653235394984,448.85021961424826L1378.4145242036222,446.3387993725628L1362.1023564025702,447.7803981930918L1337.36423612141,463.2183121923166L1321.259083115951,461.80976587903876L1305.557309449655,448.3614403351481L1319.9185131743682,419.1372184012104L1316.9296182417936,395.3981992177557L1318.1156274439647,378.86194180428737L1311.2006607168964,359.36646102285493L1307.9683150969736,324.09478734516813L1309.9095256422165,306.8660619032665L1317.4508906254669,288.94109126245337L1328.7204670143788,272.4964175829906L1354.6159664673396,257.90589311350624L1362.9954879096995,258.79226666228516L1385.1569150907844,248.34351136231578L1404.0820515404887,245.2158979226918L1422.2807068375184,225.6968742599976L1424.6906959429773,213.37517300345698L1433.8115755434799,202.1761067482525L1443.4490414286036,198.44909657559313L1467.3017184582766,174.39921836812033L1483.8865842327625,169.33975124824747L1497.7886312522257,182.99915802275845L1510.8128099565763,177.1662125929307L1526.774309637922,153.18267644314753L1533.9616257512848,148.77531395613354L1561.840951782449,143.8049768316988L1581.6980196477914,149.8075796535901L1596.2049497907506,144.9669449499549L1601.039119666823,151.359515054796L1580.887967707588,181.91416014509804L1622.568769605539,217.53786770696146L1633.0309052535968,222.15770077740436L1641.1647842745995,217.81104588452789L1653.7834803363887,186.79737837301911L1653.2078873975065,169.1611576641369L1656.4722956879837,152.47843109029026L1667.6549968751729,130.15732728396856L1677.543569182938,158.11968096741924L1680.2423730536582,180.527739637133L1688.3335516540217,175.76495184848423L1697.1491528783567,186.55249644858984L1697.7546434750877,210.68975737608596L1703.5373904350606,240.4258698630378L1729.8741085722452,260.95819235683535L1735.9875427801314,288.8639766202007L1747.941304659703,290.2402253318468L1747.828718101815,305.46835765973134L1766.7808254305874,332.7434949386196L1764.613062014006,363.0705358593501L1767.9560823445127,376.2761394467145L1749.273875577676,431.3955773059679L1730.9459451562366,453.1816235833338L1699.390017234162,507.9697212963028L1693.9479190527707,525.0444407991237L1672.9304018632304,530.1380033702999ZM1341.1338638917803,104.90348858141633L1328.7908772254184,99.91062299337528L1306.1192612448826,99.40010789285952L1281.6833334273865,92.39067714442822L1268.3023173557706,92.58424139077968L1247.0096145129748,87.62846726513507L1234.2518790095673,81.59658433417863L1242.719967275282,70.0803491137514L1256.887670846424,70.7625158878919L1272.7842128675024,80.77315058600634L1295.0373839101264,81.92537311245185L1297.6338013977643,77.0334668458071L1319.3240682518563,82.86166622880754L1323.4925233337704,90.69398236913162L1340.8301426331107,92.97577599956844ZM1534.0242241188619,45.81991664591562L1524.391437378417,40.74345079900137L1499.6647318364091,40.290562350700256L1502.612244970849,33.704133947361L1530.140994208907,36.56782872186493ZM1653.504345613818,30.68415152364868L1695.4071903299675,45.93361458228251L1709.7090353375147,58.201767611636825L1711.1252877278057,65.38094106163534L1730.340380723074,73.08027591650078L1722.3532051539212,80.99969877979262L1741.7057349091665,110.69905404311174L1752.9313802391716,120.54404763943286L1752.9572012907092,127.11375206773232L1731.266505278267,123.71100672218594L1716.2776281475026,108.50703001974766L1710.7161662222788,97.64842640935301L1695.5542196115973,92.10140335655058L1678.1835887253437,99.83705119367076L1679.3602489468444,109.05282245845787L1669.8251540770616,113.17579707845049L1651.313809840522,110.55653565385407L1641.2775933874284,100.17261195095803L1611.6156094700004,101.67665205715042L1624.7752914002738,88.03478331602423L1616.682236962454,64.34832410631925L1594.2540765532065,54.0642771729362L1584.544561681952,53.16654282739243L1567.3526000514917,41.86869457646963L1547.6292708359722,33.2816226502919L1546.175224641058,19.075135269244164L1552.741516189333,4.3257905437338025L1571.3810530315318,9.085998122557005L1576.4264556399644,32.85304415365212L1588.4749777447123,39.896134009326154L1598.4016098162938,27.16118542822452L1611.8590565632564,20.173000288316903L1622.4024707496017,20.174458908048013L1640.9633963915685,28.486579158557713ZM1404.136060119947,67.62910680908001L1401.1128133834338,41.339590913415456L1392.7325912956076,33.01020893012183L1407.9644362958961,-6.6842526655761025L1417.6550924301737,-15.349747849920805L1427.002746950394,-11.88004896667472L1455.3945336406032,-10.79766877848378L1450.5523426246614,-2.795683588307848L1439.1940263744418,-4.955390835775323L1409.5945860208305,-2.795586403004162L1407.9661928513353,6.053568172221132L1424.89452683163,22.54283038933435L1436.0488938979265,37.62526739396623L1443.7863512678273,55.69598670748974L1437.398569096696,67.00615078440906L1427.1135707753274,57.67225732741617L1425.6795743028702,49.71600950037713L1410.5516761056401,34.54771216689454L1411.485172950833,65.86079307897431ZM1502.435808177115,10.600582226786003L1494.3189620769435,-11.882983598041509L1496.6829198057364,-21.22857521200883L1508.0641994875255,-18.182336932011538L1502.8627298144554,-4.091581107316579ZM1226.9242411814557,69.61828592723414L1202.6757752749866,50.003737900488936L1189.177625181787,32.95015903056068L1174.381719763606,7.563506679951157L1164.25424420561,-2.147788422473381L1156.458809837353,-21.402744953291442L1145.842074323589,-28.78637105060918L1139.622277143713,-39.020791930042975L1118.1612658716447,-58.69923230245412L1116.7962585473867,-64.8486407026462L1142.4051153504374,-62.01470669243664L1168.8390561871056,-37.50419644185638L1180.3533377632903,-24.662644459104545L1192.1150031440184,-24.447150640341174L1208.853526530832,-6.681785511630835L1217.7838029469865,-1.2849679722358789L1213.3088555981165,8.428677549916L1224.2390548674994,12.755807043837237L1230.1993181385255,27.515903862601117L1244.2797479704682,36.02042141475937L1239.9017018544432,69.41326869409336ZM1286.2003014026427,-23.591847419013508L1303.6537691323,-21.854968282152736L1305.9727234158365,-31.87402434519177L1324.9605173385653,-36.68669145710883L1338.8252280154888,-53.599483455041046L1353.1395146842501,-64.66197025236826L1367.5642589111083,-82.7113824086199L1379.2936934542954,-71.35679669797575L1396.9353094023652,-64.27038454941138L1390.7317069943783,-53.20047668844312L1381.9048834005534,-49.00548760939224L1375.6210698497707,-38.239229983158026L1384.2969984303863,-26.875740538043512L1378.3514348374788,9.513874529233469L1366.949984938144,17.53464591558024L1366.4255350285362,29.289228633609834L1360.123761424182,43.294170557065L1346.63927487026,48.55966502924657L1342.318997632806,41.31078991775232L1328.2006507587373,36.92475038382627L1313.939863078743,41.07824522108981L1309.9774908528134,35.3875520663282L1292.551399753806,34.72624447297314L1290.70344725395,18.830280822395505L1279.4174336567974,5.404113001657671L1279.3713240184604,-15.774074809469283ZM1469.8449500907632,-66.58592382421392L1455.8464838893472,-73.48064237675366L1444.3460696855914,-88.93136756388488L1432.693850393653,-96.34234317468511L1446.1105607264008,-104.5327828455465L1477.7713683371223,-111.92808626413145L1482.5600269394765,-86.09209499827439L1468.9624493784572,-81.11753780495322ZM941.5553093692779,-70.60314373294122L935.6320181135652,-80.03282389710762L933.0719373103194,-97.20965718364582L937.6025507013635,-116.7137099472398L945.966002945846,-110.07361678594626L957.644741910474,-89.087787619334L956.38859542158,-76.76276580052262ZM1439.8398555708748,-108.60149037589898L1432.5324104515253,-117.00564683058192L1438.207936129032,-131.70640389266288L1451.3130313422091,-136.157508796541L1450.7888672360366,-124.17960461092532ZM1460.6114875317983,-122.38756679527027L1453.5449564601993,-139.40821372224408L1460.1814417288401,-143.3886663763774L1471.2967294540913,-133.95325451071727ZM1450.257585886689,-152.63455149839265L1425.248792475139,-168.36787031590538L1414.4621455621857,-166.40533758856742L1401.0253470354037,-183.24118627268376L1401.65998744279,-217.40453919891397L1404.1040566781337,-229.5521821277208L1419.0282991886584,-225.87409303188613L1426.9162864231696,-211.21230455942052L1418.5749657868523,-196.00565565143486L1421.0908347013662,-175.1577825739754L1432.3997432150982,-175.49183971557903L1447.5038011444665,-168.5477197243272ZM-831.8158641621579,-237.98717472396754L-821.2039631643245,-239.96679731427136L-803.2388149977314,-232.8715713421694L-798.208382326639,-218.81901975825215L-812.503139811616,-221.68491788586152L-833.3563387717909,-217.26711406301305L-844.2796956714969,-222.1819683441817L-844.4946262320211,-235.33303235529834ZM1273.338634625296,-223.68982968723753L1263.6727057427393,-227.63238472311633L1262.1623590325717,-238.89599343490056L1279.7081442271785,-248.82817434218947L1289.5607146641842,-243.40187550681583L1282.8274529235066,-230.04223977580682ZM-902.0237092839617,-240.55918926001934L-911.3272879536767,-262.9262683920265L-946.3354253237571,-270.9654893230732L-950.2694465904348,-283.88765914815724L-931.5251220489254,-282.6461412816635L-916.7724841367336,-273.3979268347321L-905.8074642230373,-274.6672578471818L-886.0762861009761,-257.6756214249885L-859.7762091622465,-245.46427950285798L-877.4781770476769,-240.53330762437403ZM1399.3472522180946,-275.86300407243743L1389.3694843817236,-297.3231878417747L1402.120279882764,-321.9756240445068L1407.9253895128793,-318.0008841098888ZM1516.5889031439863,-435.9554592814526L1508.1085729637878,-440.1142144609133L1511.4219693217944,-457.0905570271081L1521.5527523202986,-462.3453743435567L1533.3283779484932,-454.2247087677523ZM169.2329582438428,-449.5097573662777L139.00703359521546,-462.7090924741627L173.06292548096658,-471.45675593388785ZM98.06898582355392,-480.2590322547499L93.01477358613631,-500.5036107224574L108.6716969654291,-502.1203318028919L107.5986882099197,-483.8365009162888ZM1494.8552391232336,-409.1211599118091L1488.3100491452008,-428.54389425389644L1473.3859767869212,-442.9052532172516L1503.1329809045253,-478.666630337937L1524.6515198905888,-484.7579551137527L1537.6596258989337,-482.27828438503286L1542.8527405099358,-511.73257574190933L1552.6212865035136,-504.43478106884186L1570.2663939815045,-529.2339845112372L1572.1099152017996,-550.2714722718989L1564.9503923828117,-569.6501791828622L1577.9017728754611,-585.1960441465772L1594.0829710577887,-547.5613146100112L1587.7578492924988,-529.9218904693138L1594.7279859284192,-491.0728640644399L1591.3800929059296,-479.334882545891L1578.419608668388,-470.73018031062423L1558.769602137107,-468.6549905155991L1546.0075034943238,-449.37894206081734L1534.2297795102938,-466.9075228800354L1514.743249350836,-462.24938924161626L1502.8331647478064,-453.9948521779134L1500.8235001045002,-415.8521364675096ZM1560.9832220939775,-586.9675227844843L1555.8813438214747,-618.5702066254179L1567.6294097310592,-620.760542219544L1561.9725422121498,-661.076835286664L1581.2022517422606,-643.1849960379881L1614.9574574963742,-623.161806360952L1600.0204572489902,-616.846032951736L1595.0836590407016,-598.0956670382662L1574.0412559994234,-608.5196396337141L1573.391319506706,-588.4227005105095ZM-1346.4981842476532,-690.5260898019419L-1361.6284768661271,-701.0075814355979L-1378.6689240616618,-741.2930226804075L-1353.5536376514253,-728.6161745326547L-1341.199025211981,-703.2253201569381ZM-580.5478765072812,-602.1003649295286L-582.9361285269513,-617.9239102642316L-640.4854625554283,-620.4361130123384L-637.5149844186273,-634.8820082779972L-626.8392131931234,-643.7421840836635L-602.5378951816822,-677.7563542934014L-597.8675823053003,-649.8949402237242L-573.4870151318154,-643.0456791238789L-568.8954132965769,-615.8457509282656ZM1560.9809599792093,-669.1195188926649L1540.064924071362,-723.7995234885021L1527.9816661395682,-765.5883276026094L1514.082823091464,-784.3094071587611L1504.0088409122852,-812.7970250785876L1525.500849313205,-803.6672782822145L1533.3746379320642,-783.6689199492271L1569.718989490937,-730.0054617030823L1551.0479577849665,-734.2943075045551L1553.9948751345314,-705.5603644976029L1563.5208657450858,-684.4797611034236ZM-78.42063552359703,-722.6221793578993L-58.92534726676351,-713.0584237378188L-64.57831239499127,-701.6743722460867L-71.34315750958145,-676.0084217101381L-90.55585278903213,-666.8483520648448L-105.44889490129779,-669.3135361413904L-96.14604053225459,-685.907274872615L-101.01300737051106,-702.3012532942972ZM-55.979639952563296,-639.9673691073016L-45.748700950537085,-659.3318273475699L-55.40747736863131,-671.5340631994461L-47.720894464593684,-695.6092657150286L-32.191681769886664,-694.0578876657559L-37.71329093129859,-713.8498971207043L-57.94267140392236,-725.5139712067693L-63.07487595258758,-750.3053720696566L-50.73772125262342,-782.0283492617659L-30.437955344046213,-782.2387922063726L-20.07573613388898,-765.5359634878295L-21.381141415570685,-735.1701146387096L-4.313774176947522,-711.3554614366625L5.07731942822912,-686.3145224260157L17.788652608093905,-683.3860319048931L5.868845565801009,-652.34805457102L-8.436468941152691,-652.3497662964081ZM-841.8143281278869,-923.6545725338586L-842.0626062792772,-945.6091904990913L-823.3826618101351,-982.4891373922019L-792.5196482345082,-947.8465960378577ZM-181.74095064999332,-874.4944848892421L-220.56479105595366,-884.8966900502883L-230.229917076343,-904.0543072125176L-224.04394828257233,-932.1596838567717L-195.95240732298802,-919.9287558957881L-169.12822815802753,-924.2813779912633L-152.81129890723932,-934.847754769795L-130.51844051075219,-905.5142838141314L-143.86440035712693,-890.399583023423ZM-1688.2969997647137,-1149.5992399116114L-1718.5533997384705,-1199.0502495748267L-1741.928407302815,-1192.74509334267L-1700.538720782475,-1251.0489570680443L-1654.4064556455473,-1311.4475640984942L-1648.802035410904,-1234.987610685605L-1626.6229153252941,-1221.6033660463954L-1627.1703682414468,-1188.472912107015L-1662.206337867668,-1181.7479761983718ZM-891.8129610447425,-1071.3397094687L-916.8812215793228,-1094.3582460341338L-893.1759335248162,-1110.3532383270922ZM-791.826523966259,-1052.8343805281495L-767.6630531888135,-1074.957437850488L-748.3255002377139,-1054.5481973112942L-764.6026916606091,-1031.1268718292902L-768.1989698623681,-1006.7201897570039L-793.1450304821363,-993.8611307044378L-815.0530703673942,-1001.0217519617732L-838.9004390216567,-972.8065813699955L-862.5760341102429,-950.4542936184982L-877.1552240818302,-951.0541021690884L-894.4930707814285,-929.4391910874842L-925.8641535937902,-913.2309526940076L-955.5806839532574,-875.9119573085043L-964.2865881840276,-852.6525620845377L-950.458086739782,-847.3635918427033L-951.9041162168403,-813.1919415686699L-936.3190725224589,-814.9643641444904L-906.740107843225,-786.3604412261552L-886.2289179241535,-770.8631439339446L-858.2046265327415,-765.252333263463L-864.062677177523,-749.8135537281399L-863.1553163651856,-711.2520057178656L-851.3113538290294,-693.8134015147815L-831.3636780613776,-715.6847288095994L-829.6025172303238,-743.8864046589644L-790.9024671203314,-784.4466329694219L-790.7325372649715,-813.6289279778318L-798.9685388451217,-829.3065120490309L-780.8035267510548,-848.1917390189521L-772.9580737585613,-898.2918474436857L-739.5813238990524,-891.4095698015202L-729.6610503966011,-895.6319265466426L-712.6152470840946,-866.5846901570882L-695.2622962884562,-863.1932184931414L-703.421892986135,-822.1832262314673L-690.3850629133027,-806.8259613569353L-672.8043728508319,-815.7120412554815L-648.533944519677,-843.7361851968666L-631.3609758398006,-778.4073409988378L-637.883247838274,-767.5408272355136L-619.2457422549464,-745.7416153087577L-597.7564422357262,-734.237575650464L-596.6800577129806,-719.5301162174778L-585.9738442541295,-710.0532599486718L-588.4412954097025,-691.2973808033122L-606.2055217934122,-680.0997308485847L-625.0457062929781,-675.4239293972369L-640.9888987959724,-662.7397299876653L-659.739077828102,-661.1311875924683L-709.5288357929293,-666.6428296991604L-715.0431725524721,-649.1272488795338L-698.6500445677358,-649.6294406208518L-690.4363333193551,-641.3759104625445L-702.690294961586,-631.1179209303601L-701.3639298062583,-601.8896790024191L-688.3499966178246,-593.4875358336202L-669.7502797326314,-594.8548107050204L-666.0950790499533,-585.0273387296337L-691.9811486997426,-577.2130025264572L-718.2099743350977,-561.3275604997639L-733.7459548565562,-586.3601531440597L-745.9385928214264,-574.4679464903107L-770.6815869548207,-565.8108293735213L-780.5934410088721,-553.9349471573992L-782.392673405425,-532.9241167022415L-796.280726535787,-531.3468326987445L-798.4425830766144,-525.6698308991446L-822.0725817428935,-522.0606824749315L-826.3744784868941,-508.59021847051116L-836.9902621704151,-501.44399230345954L-842.0289352659603,-506.2729874788177L-841.0860880380404,-498.09869964418203L-839.7165494857478,-489.95840861598225L-848.231896741844,-483.5955212959654L-852.2449399836918,-501.55047687573204L-854.896356372583,-486.0069760761726L-854.9075609468513,-483.59388733183005L-853.7008307227136,-449.40807931689415L-862.745506589306,-439.28629537345876L-889.5574869887969,-426.68402033137335L-926.0705931181114,-393.9470443564246L-929.3937664008986,-384.40389960801156L-919.3409789732782,-331.94234581784366L-925.8477910574144,-309.92960906263517L-935.0442045094562,-310.0955803336385L-935.9932844230423,-315.93361798042247L-945.108364198019,-330.5129230466421L-949.9934873448939,-346.1414516922485L-946.4721359693569,-354.99454183713965L-956.2820056762416,-374.27543155916237L-973.1584290041678,-370.4403086570874L-975.0425877498614,-371.24681801005823L-986.3798093181356,-381.4337661719936L-1018.3378258982581,-381.0816925297619L-1021.9609181811467,-375.32661800211696L-1023.3868048031272,-365.2243651386302L-1040.1070502837283,-365.67944948662387L-1058.0213353939605,-371.7739631742003L-1065.933551627254,-375.068354442656L-1083.645882589454,-371.4960075457463L-1107.9097656157235,-355.8723093017867L-1118.488620816521,-343.24417246634124L-1118.8160325741787,-322.69801138922924L-1124.6948538847155,-311.15951617158106L-1132.70726217748,-277.2440571785335L-1127.162983600072,-253.5286062068999L-1114.5148781349703,-229.82462676932656L-1097.9534047221075,-220.9274756077435L-1062.0719978573748,-229.92417738418413L-1053.958789776948,-235.00523655434048L-1046.2601387206937,-256.9168888210023L-1025.5290953230358,-263.05301725481814L-1008.1812698495308,-263.52083932220523L-1020.8511825955953,-221.52266092167676L-1026.2382728070775,-224.6126514782514L-1028.6221325233741,-199.78098596777892L-1036.0772272915576,-191.77002659312097L-1028.1359774050943,-189.8685082525828L-1012.3768310033734,-189.97985978133417L-1003.3672370713181,-191.74960890509607L-982.8488970486284,-190.67936146014353L-969.4131260867374,-180.29921385597495L-975.2702484520294,-157.1813304811017L-978.2821383174646,-130.43885907757692L-965.6623264033883,-113.67566470023341L-961.7825032102318,-109.44578936769669L-957.4483066327335,-106.33042381269944L-947.3667564213002,-105.20011247052325L-930.8201291666278,-114.25281112513319L-913.5853122779238,-109.77612591425083L-905.3340971597486,-102.89978691543335L-885.5594119935772,-112.14759309645721L-882.558070651491,-126.34188993647042L-867.2292012032459,-134.53114963655545L-857.9662476888022,-133.61023259037853L-837.8758834920336,-148.264481719158L-833.401949583415,-140.2126166559538L-840.8809679618133,-135.7820008291519L-837.7394975873167,-123.99499051923091L-843.2703603700711,-117.13972620216492L-839.1667242689241,-107.62502269501422L-831.1377077333509,-116.88933657609768L-834.6412160061311,-130.42435747897565L-819.8712548763713,-135.27013834064067L-804.8704818752024,-136.1127545741615L-797.2291953397604,-125.21749104750656L-774.1279361673091,-126.26466483363515L-767.8560435663909,-120.94101842027771L-752.4009530510506,-123.11420556265091L-733.371894160214,-123.51099286599775L-711.5469020415802,-110.9029313948597L-710.2158581705773,-101.45392432137864L-699.3600587570326,-98.80581077971912L-691.7865360769689,-94.41357192832103L-669.6520276662492,-70.37408266629545L-655.5151745834695,-67.97006157118925L-644.9238629195503,-71.01010520922254L-632.4226779139466,-67.73803526243147L-619.5258649132642,-63.59993993493919L-605.5511114781863,-48.8360806830909L-601.489619084507,-49.485147431987485L-592.4075726675381,-22.219101875811283L-585.9616207247714,-12.286413979400457L-590.8462250403472,0.871357717184516L-570.1637268039698,2.8120406278276957L-526.7371845993748,18.130641133045387L-521.0273430400372,25.040520329988347L-486.5063857097153,34.11239818475491L-468.67034607689527,33.67807210862606L-451.5694966172489,43.4042927647937L-436.44668532699967,56.60230979330237L-412.85966953864795,64.17669139155898L-406.89340582907295,86.30882793945287L-411.0120346213649,105.90406441926746L-432.72429464091874,130.41549531298443L-454.4126702834599,163.25278510460316L-452.83345867349163,185.86297928929895L-460.8918226236698,233.85667913967742L-471.7288336994621,250.01163055880272L-473.06011228813543,262.7856409143997L-484.32136103825246,275.9316880217944L-514.7967905649671,280.785172124139L-535.3551208723787,290.2225554657227L-548.2105756649844,300.5826097141117L-557.2490414177408,313.3144552479298L-555.5869546643405,329.78863090059474L-558.7621489678913,349.3264326903708L-566.0673017873244,356.61754971708797L-576.6123149425437,379.98246637859154L-592.7180437526627,396.91045650039064L-603.5338587003404,417.68249665262204L-619.3709170139468,434.0909221954958L-652.6415968630693,428.3490991449481L-660.5928506677544,420.9956051194811L-660.5412586124629,428.0409342778918L-644.623684017961,439.52584909899247L-636.8084731298264,461.53417638815756L-645.3530748334545,479.90392421113523L-661.0122990766557,487.98215501948914L-683.0608215946713,491.87124942924373L-692.1017501934278,499.3313976478136L-689.3869031218111,517.4053557473818L-706.4259033122837,525.0873705535422L-721.6780815238852,524.3432398270276L-709.2208266549427,550.6652848877144L-716.4363903299094,560.4318570342048L-716.4917225603139,584.086696111308L-727.1497136627434,584.6219805700625L-735.2424450894018,604.8757378718018L-710.8653332331648,618.3814991829744L-711.9135823436919,632.5615232714899L-723.2331334964995,642.4583454366988L-726.0154890639399,661.9436135824926L-737.482005862295,677.1293736153922L-725.3366993868528,702.8449844372805L-747.2591010924758,715.0099295491419L-745.2818755894563,731.023593992191L-763.0291052907005,727.2567543375528L-793.8142934788614,707.4481291052668L-814.9614874221726,648.0897119083902L-813.5558152765516,631.9730013934512L-822.4662925735796,615.544591427774L-814.7487610014691,600.9539321370883L-818.7665931242326,561.2134121672538L-820.3346906648419,511.89021317812393L-816.9870514445554,501.71276777335027L-825.8707940273953,471.31739717460323L-821.2660212659362,470.61921431946337L-813.0612837696417,425.1013351223195L-811.1279218047382,404.45308362023184L-816.5465037506216,384.0087052157995L-817.9169821995317,356.32250300097934L-812.9849418315523,340.0996901932077L-813.7062556738862,314.52078151821587L-811.2188236259292,259.1647451245767L-817.3961603968341,220.82634443778412L-831.1242857243363,208.7974035143444L-854.9311353890488,196.4194330307004L-886.1061950141267,175.49786250270037L-890.127563787547,161.74605094737288L-900.6663556154851,145.84254505043648L-925.3003415213207,99.42201394363568L-934.2693691384011,85.10639202758792L-952.0414211451268,72.60539289012868L-954.4482053763188,55.97344254813829L-941.7459392804169,40.05998448778723L-949.3013677373857,12.313228432310249L-945.2532126518026,10.584376992872809L-939.1757458971853,-9.054277824449052L-924.9512622833597,-16.1860595561165L-919.559324708045,-30.914396391293483L-913.873323157771,-31.781114563271487L-904.3695929655879,-45.249379910066224L-908.4323963559405,-65.97529117110854L-907.6989023763449,-79.12025253661201L-912.3798939404218,-85.49735453399302L-918.4162590296094,-99.3906515868525L-925.848337731156,-106.70314792300343L-942.4325015000345,-95.90183928888422L-947.2210167565241,-85.54694422651765L-957.0062289948846,-96.14936104568244L-971.5414138175701,-97.503110989479L-978.8667831798756,-107.48883491292018L-1003.4206487292628,-120.68704921820837L-1002.0694891789391,-132.31459814870632L-1023.9377273944237,-154.71057708522142L-1020.6901429973586,-154.9206187574692L-1019.4379376641668,-155.59352633495092L-1021.233060495118,-159.4555163377524L-1026.191542385361,-157.66756831697742L-1051.6196654598323,-165.08105139553462L-1064.7981493169557,-167.66845436392418L-1075.6159879030565,-175.28635141338782L-1087.9900175246937,-188.94876804552206L-1103.1979805497615,-196.247803161984L-1125.5123638988025,-189.71319372389348L-1173.6423105833255,-209.2828963047005L-1185.713458676493,-219.07449533370394L-1203.4357620397286,-224.01969430189143L-1219.9063554665545,-237.58689868682154L-1226.8765187669744,-252.37113660551432L-1220.7392127174844,-260.7554058163425L-1227.045625588654,-283.3685153825548L-1250.2813971277687,-316.27255293991556L-1261.074787705342,-325.6567787238907L-1258.2630742736687,-334.2467894017197L-1269.6347547948258,-344.5716373337318L-1286.9721005715094,-370.36159000518967L-1291.99375269918,-402.7503179442283L-1303.434264500257,-408.3423055906527L-1312.1266675941135,-406.7980294123952L-1312.4454440784891,-388.76750688515L-1296.559695811453,-363.06440406655236L-1295.5674520736936,-353.89222585142704L-1284.657630508291,-338.0494271155098L-1277.764444068729,-312.39247491173785L-1275.3978655856502,-293.26974697486725L-1289.6365305643023,-307.8806365949977L-1295.1901670340992,-311.5489187073174L-1293.9877729729205,-329.0720119078116L-1316.9084729302806,-345.70101475652217L-1310.2186648648021,-365.61195926128164L-1323.4889340334223,-380.3626649789029L-1334.5149791832876,-424.7020744861698L-1346.0804662684636,-447.80433429099253L-1365.7927249555416,-455.30191818307554L-1367.8800751838378,-466.5363673625653L-1375.6691690374544,-482.5584240078781L-1388.3474046368142,-528.4460028066338L-1390.7133804632556,-551.2445382733806L-1381.4753424000266,-579.2639031484368L-1381.5498082085446,-592.3032086316914L-1360.691122083578,-639.2960483320842L-1354.8095136639758,-687.9750366409771L-1338.5173489783579,-683.4047986349958L-1337.6737779568464,-665.8617132305003L-1329.7677007990958,-700.8590434574036L-1351.210588104177,-730.8598827874798L-1368.5089783903527,-741.0833522562921L-1362.5340186709223,-770.857269278856L-1373.2526943127605,-781.1213028333186L-1369.0093589439114,-797.5009107984512L-1372.165791076477,-824.4564462961097L-1381.7417511099727,-841.3890069495803L-1377.1110816475261,-860.0218154824115L-1383.1615263745293,-879.6397709879337L-1379.7686295053888,-901.4629127226958L-1414.4917264931064,-916.9639158093132L-1424.7431843993602,-944.9663069985088L-1446.513964756218,-963.6600363971606L-1476.025093780102,-979.819743018759L-1537.1110823746974,-964.9821507699312L-1545.4370353861214,-976.6005314641739L-1589.015655743598,-944.2901538805257L-1618.7879635644592,-932.204681227006L-1656.7233644473085,-903.7012788702057L-1679.1197904281664,-908.7611512982719L-1631.8835060957554,-938.8268742493474L-1641.10911163331,-980.5138300030869L-1655.9153358667343,-989.5856921810821L-1651.0732717970243,-1008.3929895526406L-1666.923067518619,-1007.1554515221887L-1672.5207069128796,-1029.0676189937521L-1666.1700689519912,-1056.5672183233132L-1625.5504211311497,-1094.9840249143444L-1612.0464227717696,-1088.2706185911438L-1572.5530246334952,-1113.413374738604L-1581.7774898670004,-1126.6853009693812L-1617.5532525548804,-1141.8613297249558L-1616.110113417334,-1174.009637319861L-1556.7949561163807,-1185.8660203910613L-1546.783604890913,-1166.980737227618L-1543.3253104923137,-1186.4422395007502L-1544.0675685548795,-1217.6254562418928L-1549.59739331781,-1247.0922854305368L-1516.797609536332,-1255.5895006336245L-1462.7631168951145,-1289.248798636379L-1427.7537235753623,-1296.5591743957527L-1392.5181147174826,-1302.3446975688273L-1371.8050394430068,-1265.5265121404364L-1344.551195239547,-1245.6007195599211L-1319.2345319613569,-1224.3610158542253L-1289.3416507671461,-1204.9275506579634L-1276.824010344932,-1192.8409144004713L-1262.8795108545783,-1169.7413102009234L-1209.227104332492,-1179.3988444388688L-1155.137078614536,-1185.3090979699375L-1131.3838010309094,-1171.8047416428715L-1128.5997403717295,-1151.8742177263894L-1096.5925725179725,-1134.4035448571028L-1066.4907166959833,-1115.4594866536765L-1080.7872410802015,-1090.2959447747464L-1066.7561186362434,-1080.7237344325017L-1029.4081074548035,-1080.2505271649618L-983.2531561268502,-1092.8000749482233L-976.2464388583603,-1069.3447535269706L-953.1615889313686,-1054.5175698460296L-923.2724121945082,-1051.775899671355L-906.9466937448492,-1070.0143662535268L-884.8291795564237,-1051.82029029041L-869.2652873594345,-1075.1447815859224L-877.7555486796138,-1105.3765470221308L-843.0190188025896,-1150.4129226916077L-829.7598375317289,-1130.0540956775073L-831.473369706741,-1098.0678689244867L-816.4205313838447,-1053.0842438872505ZM-1010.1912668808292,-1098.550351179911L-1053.5728766181032,-1101.579817634367L-1070.5491190975135,-1124.6397663661546L-1062.6853679964208,-1197.1844271162L-1029.3499445555394,-1225.463415014508L-995.4087053645715,-1236.0197391372924L-977.8133836873119,-1218.8773128836435L-930.7301365669985,-1214.6347698334828L-921.7325133126672,-1193.518112190999L-938.2465528690607,-1145.7139991111542L-920.0994499012495,-1112.7728127146763L-949.497010317942,-1083.662655246019L-976.8977148618022,-1101.7367965500187ZM-656.0778317992053,-876.5777979538509L-698.5639557138845,-901.6186708183154L-702.185899671647,-918.5746949219491L-726.1927335771135,-937.3584663552188L-755.8526346046253,-937.6917158487347L-749.4347648312688,-961.3034803794541L-710.1151907402425,-959.1288370034929L-683.7097254703523,-997.7125046037794L-705.4504051335618,-1062.8317964399514L-742.8102948348301,-1068.9238990973718L-773.843280728386,-1080.5558210211004L-806.5286684316079,-1108.791456991746L-794.2589676392525,-1149.153167800102L-761.3758003826807,-1180.7449194923697L-750.4580520623007,-1166.9904327744657L-706.0582294884287,-1175.1682802179193L-703.7741480027433,-1143.9519348803487L-679.1144977920712,-1140.1126398740437L-658.0583840782217,-1110.972028939536L-639.0773318513585,-1082.054956969391L-620.8328143116086,-1068.5179004173565L-615.4463315391532,-1034.1832780294542L-636.2679723845159,-1025.4321965501633L-605.9375748635372,-1000.4249091532207L-591.7416259759574,-959.7447688089069L-615.985167267178,-936.9687107286197L-634.003209326133,-969.9410230862236L-652.2815248968731,-956.8723290080407L-633.2933455112372,-925.4013581952933L-632.6403205568961,-904.5551990159986L-651.3701237558133,-896.977349939846ZM-879.7756167623538,-1139.8493811220198L-898.6061741807632,-1182.1530872901849L-859.3618974285521,-1215.15806876064L-837.2518544498522,-1197.4185902049228L-859.7212678657526,-1146.623768266218ZM-832.949121998661,-1151.3756861477852L-835.5882441763088,-1180.1234923042305L-804.6577713121807,-1210.5285827428177L-774.839266689403,-1194.2924479666212ZM-1106.901069314307,-1188.4537166255504L-1114.6933748061542,-1223.4592389008956L-1083.353432053326,-1253.3916785291888L-1058.2698786255912,-1291.634280577209L-1027.794969301676,-1280.7000250378917L-998.6069446437929,-1268.28820813013L-995.0333859429661,-1241.6503964969947L-1032.110856961047,-1224.9340100443194L-1067.6920796650893,-1207.1948914488578ZM1166.2480474781755,-1344.7155374295721L1120.1295618515437,-1383.1962827000907L1147.6858211786016,-1400.6021522537949L1190.1442780655282,-1395.8027598221927L1204.1766165876559,-1368.6393439144344ZM-837.2683301584809,-1244.47970543869L-847.4577645568793,-1271.3692138389194L-833.0667011220086,-1295.370393960642L-796.0820224574103,-1280.9703341553318ZM-962.7876925736903,-1264.2019568363573L-978.7212481703729,-1300.0170173430604L-933.0490542956644,-1333.1312022600312L-917.7107628731068,-1314.8202018731313L-874.3389681235293,-1321.1552973673465L-889.3729931021584,-1263.412404106425L-925.972105259804,-1264.7649708198762ZM512.7529360023435,-1055.8585632697252L482.15434938902905,-1055.2301864107449L453.5028945311754,-1084.1053228236544L464.7687577824619,-1170.2518779281663L498.55934153843685,-1211.83246916931L512.6725531465044,-1183.49581290689L495.87645339949955,-1152.4566865311067L485.9978467034645,-1097.51485122581ZM-746.8276628290193,-1204.594928586516L-776.302199915012,-1226.3151678422496L-763.2304297204743,-1258.6641814595168L-715.9761716929645,-1232.6706816859332L-669.0368220754178,-1229.4319426632069L-669.4175809812358,-1203.8577983515577L-708.0295073641577,-1205.269850653231ZM-994.5102853325378,-1332.1349478583259L-936.8692249849979,-1378.0964431394896L-931.1090335787757,-1348.8553130490375ZM960.440428254546,-1242.0247453215047L980.850336339389,-1232.267981410121L990.1866530140836,-1249.828428761028L1031.4220601755742,-1240.7088598609776L1070.131253383416,-1247.7939840795343L1055.8152451368137,-1270.2690629597598L1090.457917390081,-1275.8485312703672L1115.2272573354921,-1264.6513768221434L1134.702117735297,-1233.6499360910166L1182.0421466417542,-1207.6052900345494L1193.6591772066495,-1231.6018903950603L1244.2536237751644,-1252.6095261869082L1220.4404779022798,-1294.976077411786L1265.5907579239488,-1301.3570925701845L1311.9390823776453,-1304.442973572646L1372.6551279131475,-1274.8491445374125L1403.8011318141962,-1293.7256821705969L1441.6183182349837,-1286.1015196392484L1474.3159802814578,-1259.1678594001862L1510.7024606150258,-1279.3137308851801L1549.7896768494693,-1296.6008185250448L1577.7297378302658,-1314.5199956858296L1594.5043030907882,-1323.7055793182053L1654.4064556455473,-1311.4475640984942L1700.538720782475,-1251.0489570680443L1741.928407302815,-1192.74509334267L1742.9342057154597,-1161.6972095067285L1773.2689108151444,-1134.257588552833L1739.1379946293266,-1081.4468948317297L1729.3480098625428,-1038.6233151423971L1707.7204372317533,-1039.9238107781614L1692.5386509246648,-1013.0608895746986L1678.8395016237102,-1008.0504523002909L1663.116757766005,-1008.2821715159346L1668.5191495332344,-964.5043465148846L1688.3045037229163,-952.2852516879458L1703.7060107146258,-917.6564814429255L1707.9610395107695,-885.5378975937384L1694.4758352689926,-870.2345042271822L1701.9473262020938,-844.1935393578889L1688.2142063404838,-836.0753771923357L1694.0585966082137,-813.5983373922303L1686.778229984604,-791.1130715999626L1659.1876166622937,-835.6616190463235L1631.2866818872258,-883.6152431789518L1621.8136148331766,-915.9734583122232L1624.1017326269985,-931.9228438822752L1632.7685857340712,-951.5195192307799L1639.784612382269,-1015.9609071334612L1646.9119807334478,-1040.5512233158054L1629.336765479119,-1050.4496605021666L1619.1653498974606,-1016.5047929265727L1593.9244894373176,-1044.828018097328L1572.915482458728,-1029.859010142601L1569.2610301609543,-982.6007534780317L1585.4673834082555,-969.5846955156968L1550.7945902166227,-952.6411300663639L1525.3060486968948,-969.5918126848072L1518.3688459753864,-955.0857344397144L1484.9468692137862,-952.5788741596992L1454.4032914552552,-938.6526826642548L1440.753436774081,-888.4419693629823L1421.7653477451322,-830.8012834466108L1439.8147889312693,-830.8974470599354L1462.4695288064684,-815.8608656872264L1477.2458175722068,-828.0445802335494L1502.1265260073287,-807.6332381357829L1509.363816110466,-790.3297729988637L1508.5892918749178,-768.6016137941664L1522.7474145152157,-713.0225867481972L1515.9117578361866,-670.3626428726996L1494.5293161110685,-613.9401947331014L1482.3412609545396,-602.1996835925991L1465.973660854616,-609.2542346706496L1454.0565255951865,-589.2309564815511L1449.5125039627367,-589.8048023791376L1444.4885471862674,-577.4872576484555L1448.101141806473,-565.3903609732216L1428.6369354558205,-544.804117508293L1442.28712415869,-526.7372825209425L1461.9157950866631,-497.8380936645032L1464.001837100454,-470.4640301436581L1446.1418608511817,-460.15579975891524L1433.1972060799937,-466.3856213823363L1424.2194166510576,-494.56827354462297L1420.8342293381431,-511.0470533290194L1414.1399046574186,-510.606706363069L1402.9870758407342,-515.569187243045L1406.7716994913362,-524.8720712310108L1405.4366712636227,-536.9539105191276L1397.2676286536414,-540.957981679701L1390.7370536626668,-544.7778401905327L1369.4388380057865,-530.7699132651982L1358.5797461875152,-539.4067278305645L1356.7662141045853,-559.5030644374744L1338.4232843130594,-540.4123021783657L1333.8646225173152,-529.544938584333L1318.928218992453,-520.2008780466301L1339.2839437703406,-500.8305138121867L1349.3733358118882,-496.7553980016997L1359.4172989868644,-508.8613861648836L1378.5960492405154,-503.55927097338815L1367.2609610766083,-489.93209818689553L1350.4946850248184,-461.61008705605457L1364.4926785389573,-453.8164071105528L1372.2034391679103,-439.2514894176312L1391.7594161766635,-414.5401329695289L1386.910675345236,-399.2367900317525L1398.6669370659565,-387.2000984958676L1397.8008298897264,-363.54231238427536L1391.568953266592,-362.2654063660006L1379.1569151804729,-327.54625169199386L1370.6554882288895,-310.6148018107002L1341.6480782691601,-285.680797331875L1296.5442012511305,-268.1734114962567L1273.8206291792933,-265.8028338165082L1252.2673806439109,-267.3833509242753L1237.7941375657995,-255.93346052256197L1227.8936170806262,-234.34199917543506L1250.4631616736478,-203.9577625901853L1269.7182769615038,-186.05072957050652L1276.6986641592896,-162.60720196789907L1276.4751589641464,-140.75390035829886L1254.295829831633,-124.48663059303742L1231.014066207839,-102.77225907476716L1229.4625041965414,-118.96420848595385L1220.616761111194,-125.71232237767485L1210.4003532163474,-127.48242587218127L1198.7932060145656,-146.74802049749573L1179.2227281452876,-161.96963849048961L1168.7232750189035,-161.6746438603083L1168.7563322429858,-148.18686068060995L1160.193761909445,-119.17405163628503L1169.121798893535,-109.99652965659091L1176.8738764669608,-88.36418281476305L1196.8004372784242,-73.9835062168566L1211.8368825210723,-57.45811098748356L1213.9123268785913,-32.93892505795845L1222.6034467427392,-15.120258123352613L1214.091577414116,-14.469858939091134L1188.7781579688,-32.496297657006004L1174.4070920879674,-62.92484142944174L1172.7999556975483,-76.82585165107105L1153.342365615026,-99.89277553236661L1152.9264895787528,-118.69991656536376L1154.8137276593804,-137.21205894749198L1150.340770920433,-158.1289421677244L1145.0754791450174,-164.50738346937288L1137.2014738300554,-195.3820869226601L1131.1176821314166,-205.81322057220177L1111.3258247788292,-190.29177989644447L1097.3013838228355,-194.11170785450392L1100.089672271675,-209.94830692318163L1096.6627615408938,-221.85241911009905L1070.8097670698726,-252.97263220462915L1062.768436819412,-272.7058055251504L1046.2411119430246,-280.62211402179804L1045.16284390642,-267.87734362351887L1030.4085352189863,-270.5261129557904L1029.2857002958156,-265.73006856268705L1007.4476662839324,-262.7970485619777L1003.4512310408721,-245.46813644465627L987.3041573038253,-236.822134799023L967.446466972121,-213.57959324143116L956.7835711625069,-199.6606045258904L951.3643376875243,-196.4062859195707L935.5739113324937,-191.2556694612197L932.5715929973154,-181.65781473821357L937.3512538487512,-155.64433656863324L933.1166144683729,-143.93580960809518L934.0923500761153,-123.15531781187191L926.5578097773869,-109.36287526088994L916.1552494538469,-106.01803753199206L912.3942217503866,-97.83403257204345L908.0560404902552,-94.29737745989013L896.3312496362768,-105.53371990256284L885.430430868685,-134.59123970179127L874.07404265428,-151.99178465805542L867.9669106864184,-174.92576883063788L856.4354867306777,-191.85935840793462L845.1641134379305,-231.87164253615165L840.9539805885194,-259.0168695000516L824.7363242544026,-251.1401946937121L816.172189658531,-252.67708577124307L799.6446781533938,-267.8898664533829L801.2140322398745,-277.52499069287995L786.6334550307928,-288.1702374721335L777.9337457151636,-291.35848077354365L763.7790591018079,-310.1297232472522L707.9309414796554,-304.821421560395L685.638380232252,-308.53829452296065L659.7385762585703,-312.6819084062821L647.7848649913516,-330.790660540205L627.8530411499968,-321.95571098627306L613.5711591226187,-326.02852247208335L589.7811366920952,-339.2476739190177L570.9332215692664,-368.71449435185957L557.3093973472007,-370.6703690750416L547.0268223844463,-366.1668095721902L553.3574542468601,-347.5589017516544L567.1622516922025,-329.20646645609736L576.3499690073637,-318.6944884837284L585.0045867389146,-299.32121476269236L588.8503004202231,-316.7271624534528L593.7308008389272,-305.26976178491196L591.5069035095823,-297.75713739948395L594.2637545080153,-292.88698852988625L622.3267492104313,-291.55797409876055L644.2581064618178,-316.4949385837084L646.6107609369813,-312.2720186933967L649.0475366779889,-302.17387618725564L661.7016416082549,-288.9639573123967L677.6032652622318,-285.17288990582466L691.2446681923484,-269.48279862580284L677.7372758764645,-245.57184488198038L668.6712267800743,-237.01853281138716L670.4189294472753,-228.583104390342L657.1334505854356,-222.34415532145417L654.0233773707145,-213.7031201940091L642.5243194295365,-210.69132567873788L637.3474925228041,-202.31011397591774L623.0077810319441,-199.30682872133968L609.5217199816645,-195.19399352947372L607.5600217751905,-185.77097057910416L577.8158925226421,-174.71126146263646L567.6759738109171,-166.2242242320099L559.2037628223662,-166.19649033873418L552.5402071413663,-161.07356643292906L535.2920796387467,-158.14394292364372L526.9783398589067,-153.47700112775587L519.404360149542,-150.58623112754054L507.7310905823933,-149.4542838957158L497.11206764649745,-186.66624204827482L497.60961852165326,-194.2527827474179L492.40339680031184,-203.17643812409855L478.2715763147966,-222.6482982479358L474.5958989864851,-232.55564465698242L460.8625502231513,-242.89010061772302L452.6699385605873,-254.65199636488148L451.04445849614166,-270.6208835892487L443.4982962793765,-284.5712552573593L431.52818760286783,-291.85532655735574L427.7721151274525,-302.00056171339736L420.87621058839676,-311.22939270985927L401.73131775393125,-339.6020226122727L398.730183455628,-356.1179929195464L398.21497804790545,-358.01197876640373L388.1899195893394,-334.0676461516442L391.2488615457952,-314.93529277878025L411.03553536809767,-287.32431973813107L409.966204809054,-276.9841993100659L425.82612946227823,-263.370546248938L430.41856783959247,-251.10978512278223L429.89000474459937,-236.38787023368073L434.9352717446855,-221.76741573061184L446.0983805144378,-214.18257618969915L457.1489808664748,-188.97453156698515L479.9399490398011,-171.71760807573725L502.85736181712025,-150.3251513188698L504.1180844408032,-135.57145888541464L507.818818405355,-133.38045402952955L515.7815442155661,-123.29566988578644L545.1727402283562,-127.7378305117003L572.0313189442023,-135.052319728465L596.8383357455659,-142.39009109942236L596.5817356197962,-125.85873464418903L591.4219147063556,-108.50967528144837L579.1207952422741,-80.10607622259168L569.2905914510616,-62.70592342613499L546.1102855891976,-33.4534235439619L506.090839245943,-3.441075531812563L487.8026293287346,19.856167264347455L472.34154571346073,30.22123296561666L464.0650153742946,50.980336906550534L459.5658929694001,54.876595595562534L453.7161438084415,69.39731214008718L462.05962605864335,80.47604126984893L458.4714203197238,100.06331606955071L471.34255413737486,121.71014938850942L473.2259626911767,127.1913407299977L473.20024849745613,168.39230960656377L475.01501773278585,174.16074650150605L466.3241635555971,191.25283344110778L458.78439832727764,198.81008064536397L434.64271373293474,209.22378780339977L403.04640215079405,235.82361571810932L401.87151741794173,244.62822809042063L410.97827833709084,264.43835807856254L409.9881141647166,276.5450708032381L410.3796686725212,284.5789808328273L403.10263059675583,294.19770769688137L374.0364089674904,309.70861413430623L376.5386289188189,322.5211580949647L371.0909366589745,342.155911319196L357.2440281068618,356.1914985196525L341.36063832982154,378.6506701661463L319.31220438251245,399.8291168181771L298.32912895635104,410.7557283320538L291.05315372625654,415.057760906742L254.79990398814002,413.4801069313252L220.681106638443,425.84648743384287L205.9991320067645,413.0707835855299L206.7018242820335,384.20404949371675L186.7484922092933,344.39090734801334L174.21250225863557,325.6997132784122L166.03610160395067,285.1999114126192L164.48614156209294,263.61827452423864L154.37885575686485,248.25495446207717L146.32695686641608,226.04893264910416L136.86540642351665,214.21910068080524L136.18278093667192,204.88410023844978L137.2059347102369,186.73012273736106L148.4312924444237,155.05280229048438L159.05791815393502,141.9212031820657L160.0144136223318,126.41612748964948L150.46228596880303,107.90408673067081L154.96340835193067,100.73476862924659L144.20035114346985,71.68319790395563L142.59648842111383,68.00452265484739L139.7959694059368,59.137935329925995L130.10953048349782,46.60591289632408L110.28640479045517,25.23897463215251L102.9988572619992,12.945811004950924L111.51519059031271,-11.849846404461072L113.12269712833036,-26.731197444135226L110.25482113946056,-43.77992357591701L102.53717962478319,-51.12203079058346L99.6882776804324,-56.090923755848145L87.54028444800038,-51.76925753513991L78.62761061975363,-49.82489990229481L69.30543391360283,-50.04051284492567L59.14879126670301,-65.81571667848183L50.62873766786014,-73.6027639858994L41.718369086474745,-73.38589555656641L31.592319738629975,-73.60186282967598L21.87268715308099,-72.08692747638042L12.557493339572396,-69.70706751774765L-23.098969664106935,-55.223559616309764L-33.63237156974397,-58.681000504886875L-47.00156151299958,-60.84268150160915L-68.48041093177977,-58.68230276950476L-90.37859431853998,-51.12137936307074L-105.35988652684188,-56.73959669640952L-125.97094794560135,-72.09542741535579L-134.0375452013954,-79.67422564487714L-151.38136897989796,-91.59947374263115L-154.93570084425957,-104.6273252778205L-176.94887811458173,-130.1169592856889L-187.79385493168647,-135.80242725492684L-194.53381488838988,-146.08870962347163L-196.4330501231526,-155.07694231109676L-194.74402924365464,-160.56325708032236L-200.1499739531223,-176.41423272027774L-191.46207025362088,-190.97985684542004L-187.43536837423414,-214.72612227877244L-188.5754164705003,-238.87289366865951L-197.14562875287618,-249.91141349424163L-196.62943729908227,-255.0962043214037L-183.99554402695847,-283.63888915743644L-173.41557794111586,-293.4273590684431L-165.7581773938048,-315.0050813064318L-157.72010687799968,-319.5981755680956L-144.2525830081651,-337.42566479060406L-133.55125868494463,-338.7879136091355L-118.70112340853018,-350.8952944632256L-109.04627315192559,-361.43817004489216L-111.49609903625519,-377.52538446119587L-105.26443674380859,-395.630462456054L-97.67166616788694,-404.2498971633851L-77.96320108872526,-415.7760623298332L-66.75855625451445,-437.42688108505905L-51.68001384291175,-431.76255312356557L-24.490536868916504,-429.5244157669466L16.26279190226798,-448.64950506168L53.78365675714835,-452.16401179219446L69.98401000048693,-455.6736281002288L94.39052853607221,-453.53339345457715L106.26018689549885,-459.0427460883641L124.20266264714945,-452.9341374143619L118.70951580107153,-440.32545540372325L121.79234412653376,-425.4147828291627L114.54580938404425,-418.81647302680085L129.74245285199828,-403.1734710827447L172.7162084539642,-391.8684147659356L178.17233446547476,-380.43674815131385L217.1777905747982,-366.42214045770464L227.8409500207832,-375.7459138663961L224.70623689131506,-385.50139661381496L235.9477123813278,-398.06096969948044L259.08347404186065,-397.53139047674006L271.2316956800858,-389.46273182408066L285.65460496715434,-383.5983748417194L300.5654187468215,-383.9745439024904L328.5857240900394,-374.9162956028267L351.6464493149939,-384.25565050291067L374.88500656249033,-377.5569861346271L389.2860128351876,-380.1228773173412L397.3930130279827,-404.89363138926603L405.6080349900166,-425.84555652536176L406.29851670187907,-441.7171133899108L388.90838668795107,-454.66655074969105L381.7714157941219,-446.54702022118755L364.78286388170534,-444.78574536481096L355.3184297622826,-451.8703303523811L340.9212472828575,-446.67026953024447L321.91696605311756,-451.8791393530355L309.5214950070105,-451.4602146293705L302.0665435220815,-464.8619349344438L293.44936224507586,-472.54214164916357L290.78473656687135,-489.7463685718751L302.1623743712191,-503.24658573211093L319.38263002802637,-504.05134858616265L323.17288132684143,-514.7302386540961L344.36853228406596,-513.3095188297027L369.2236289340879,-527.1494087265135L387.5294552209767,-527.8219302334636L424.2398376772184,-513.2006771022743L446.7906535712063,-514.533448235918L459.01088943302886,-522.4712137273344L456.107550548455,-538.3076777948633L438.4443844085963,-549.3231668423963L409.93799991047996,-566.3439341601913L407.2145241575633,-577.4410343299073L414.8448533976177,-590.3259210140079L413.370675476282,-603.0703031100304L379.0886481056532,-589.5500977223813L384.14175190278354,-569.985301567284L370.2491452215135,-560.9704672910996L361.3220285688404,-586.3129511059642L332.8109191773974,-593.0045739389404L322.1279726668299,-573.6136820133166L314.31482971190275,-567.7586811432689L312.72517344170416,-550.2989685116991L304.1323485024411,-533.7231259534166L308.5606441660457,-525.6732658121224L305.4196623576343,-511.30464933756934L292.0715307049268,-499.2303375658017L288.35563777986863,-508.6961680511907L262.4501327730176,-506.24074588462634L264.98558090248633,-496.2692459593443L252.66212732871912,-503.27486663126086L259.47886640955977,-485.49268194687096L262.3368383297173,-476.1637093391178L268.42674909997083,-464.4204664761994L254.76954818333033,-459.50545739984057L259.6761148570788,-447.6193505332437L242.7082798603211,-453.14431984520866L237.8904860970873,-464.06481350667826L223.77363719562914,-491.1523821127154L214.8896896043636,-499.72361448759654L215.3541205425821,-520.3358678746688L210.99618861664175,-523.3975763069253L202.99065943871966,-530.8549889387424L175.32575205914532,-545.2243148784754L167.99014143438936,-556.7897904285883L162.22319196900918,-567.6665136763748L149.16744288959939,-573.6986792804483L151.36642581701884,-575.0682559214788L134.19241898138597,-571.9351961696757L137.51721502124218,-553.2959524668402L154.1584805607587,-534.2423012808972L175.42216302266232,-517.2951832535166L193.7912554520777,-508.2070143658762L182.5846426929458,-493.0076129540997L170.9299476518234,-496.4638122760548L150.4228410450454,-512.1622960604576L142.3760094538339,-512.8679938551776L123.19299679943208,-528.244866128892L111.52108479643032,-550.4376688981631L96.98212686698542,-556.9563045501295L81.34171655493434,-547.0829747767683L71.6559109370612,-538.8956650272413L49.993232920759496,-542.7442270477205L34.12761647089629,-537.9863455876836L32.68049316199592,-529.6392937004524L23.281816984928543,-512.0528653185448L8.784935305035777,-508.9610258289581L-3.072742756385401,-485.3108314079583L1.1543290712879424,-477.5080126558892L-7.720759340650061,-462.7644410969709L-16.223258965050167,-460.03483719687864L-24.002026862624138,-449.64320787005755L-38.32804038626374,-449.41576160933704L-48.778891171720375,-449.6823311244683L-60.51457720575804,-440.1088605399842L-73.11224458740081,-453.45476715070004L-83.52242215767669,-455.47209596464006L-99.44110457454097,-452.56491475233105L-98.64795274444941,-471.47581080809266L-106.20688798965949,-477.78452562325265L-97.10735848680677,-505.6346652128129L-99.40204217265114,-521.3434865833499L-103.16351239738962,-537.7592118964144L-87.3776759573148,-547.9063773367392L-59.42547029715735,-545.1414456911855L-20.8287144906968,-542.9408762446621L-15.113524253738657,-551.6216459636208L-13.120408924531812,-580.4464590770735L-32.02459114670954,-603.6227857126255L-48.326945376596306,-609.4596229003546L-49.28138338695422,-620.2789822005855L-35.16458422330103,-623.5755486991291L-17.417792306049744,-619.6330506459248L-10.712095763763505,-630.247799780803L14.35113987703874,-642.386391844381L26.726893233379712,-658.1155697943425L35.111410992993775,-661.3072990395267L40.539710391076994,-665.660172636602L49.27873750898573,-689.0958677305937L63.622584416564045,-696.0010908612377L72.31445332017192,-695.4692481618702L91.91399016418491,-704.6030775671513L88.53758706760142,-719.9774257253489L84.68370790513247,-750.8186712042999L96.4983902637501,-757.2441285840192L106.72137182767042,-740.7827997668837L102.8677234629186,-720.4390661277693L124.60546539015787,-707.6968444506463L147.31927602617438,-700.8283484944229L182.98918750574921,-719.6147453096837L204.69277292870729,-713.0904624827192L220.26270865990605,-725.991469990069L216.96896731805245,-740.1454580645361L220.32552761346724,-763.8867510614817L247.60888858444923,-771.4504213815694L235.38547830765123,-795.8204990051119L260.0679632029862,-804.3191559362803L281.6276798325058,-802.4891160604923L280.4622030197664,-821.2876610743855L229.36122061989101,-807.5706621836739L212.64628015992082,-822.8396433781402L212.99382960389477,-841.3509504956379L210.26745017586987,-869.7321393459603L243.67170096392547,-909.1320445433109L226.9579343623599,-926.9199096161102L211.49023626890926,-920.1652227217636L206.23894496201513,-893.4809468491022L174.8043060770291,-860.0559896134803L169.7071835674658,-833.1604138787444L188.05672144303156,-810.3198277251631L180.5481607925718,-789.9533236152334L170.35677899493066,-785.4645726197409L163.41081147761508,-740.158700643612L150.8545531057821,-741.4744112782253L133.74780213864108,-727.2807598360447L111.44622289939777,-786.9218338406324L104.34102988838065,-797.6070309542948L84.87268544959514,-776.8600937199158L71.66339042425004,-772.5483903745316L57.40173582352149,-781.43124717454L53.47492229563624,-800.6530996749053L49.09585140484966,-842.7472148921562L57.981438816503264,-854.9766258485841L83.1263997592328,-871.5122310472262L101.66557313906371,-892.0111934325282L137.41239754177215,-961.7582751718849L174.23127001021544,-1007.7279748780579L208.03249958898266,-1018.2395670654489L219.2339623746176,-1038.4214352631761L251.16994262995235,-1043.9057730131765L281.8248809712109,-1028.773893907158L283.691434608663,-1007.7805175655227L335.1345217727366,-1000.0694101150812L374.96081711993776,-977.8094369228291L387.8115884555271,-953.2940319183215L365.050254163406,-934.5984313746588L331.3934491477108,-930.3502410507919L337.7199142046634,-899.9914168159318L359.08691606587723,-899.8518357341521L356.58484211535546,-916.2848970467696L382.2347239665408,-905.1687310223886L380.2058290336433,-925.2289963385435L398.3384095848322,-947.3657545442774L417.8931784219805,-940.2585849682645L426.2416945762288,-974.0178531735223L438.1406683065189,-955.1502514154081L450.5726792760849,-975.0637643261772L495.2048593691793,-1010.6758801448004L531.0809513846534,-1005.7451690024453L562.6440422712751,-1020.650680810678L580.8181328654694,-1037.9244379138618L638.2657714801696,-1010.5438249842678L640.5466298465442,-1023.804253424221L613.0616241285946,-1040.2293444940053L597.5455304438171,-1078.312555671025L605.709370206388,-1103.6799141421575L607.2313919203476,-1134.6304510163484L640.4814754858193,-1117.7572196845722L640.2606247324497,-1095.5285102770772L672.9454655236375,-1054.0923471516535L670.9636546955574,-1079.6164025621254L651.0478551518764,-1098.377323851903L665.3657282529626,-1124.3565972218528L700.2632951174402,-1131.5612435039443L691.991069162576,-1168.8149037296314L725.2267647913435,-1181.074994390399L728.1327663515691,-1223.4250824775957L762.6308715698233,-1257.4700809429853L801.7823211570757,-1290.0576869059933L819.042213027718,-1343.807505340083L869.8757359021301,-1321.84020112473L893.5236095501509,-1329.030778271127L945.3020555808598,-1293.067268587104L930.2932702173198,-1246.4450609472187ZM549.8461773859941,-494.27566370986625L544.6152505367801,-486.0758750440846L545.8122066984259,-479.1283728981528L550.507105586814,-468.7097947140486L569.8802562052904,-459.4814556388323L586.4930811796028,-457.60494460733366L604.350593491274,-464.9876723259416L600.5047677699353,-489.48054977515636L585.3739800848724,-504.49496739661674L606.3405059951663,-518.4267228061033L592.824704073465,-535.1218798066967L579.7217103289752,-529.560728254427L577.6853435275228,-544.317603099202L564.3999649823651,-548.7295448809105L557.5874624174799,-561.85418963007L559.5415435252971,-580.1544349506477L578.4483011137457,-581.1895246129387L574.6937717142108,-605.5371635542807L554.3051174792108,-607.496344677257L532.8006509377042,-596.7141502955741L518.9403020079392,-584.7177154452771L510.0408583672727,-568.931512677739L521.7822961618194,-555.1343181769802L522.314085295241,-545.1345795936543L536.3547347070065,-528.4160114537486L550.1079668577198,-511.06519642816926ZM776.4354989753024,-1338.8407637881533L760.7877780611173,-1388.1846089044245L810.8763853825211,-1366.0829961581846ZM127.97475000616656,-1186.080224701017L109.15073057690125,-1203.5340530729134L77.80927147244113,-1276.2159636430672L124.8925321693359,-1292.5184228812675L163.9011724335914,-1256.9960320238179L146.26765079746642,-1243.1083449045511ZM172.95830423139472,-1272.600888367134L126.60817283320672,-1301.835483915886L165.21455652660003,-1317.305379998938L201.71082444648184,-1298.2706069014246ZM745.6190906030068,-1362.724962875771L697.6004333790711,-1375.908678960448L661.0142596694708,-1404.2309106765965L671.4790775369947,-1449.9129259423196L706.6741501377321,-1427.6461319714372L739.5008613414875,-1405.2066527578138ZM-704.0013352413762,-1328.3673325569835L-717.3095784175133,-1337.3978736745414L-704.8734828274603,-1410.6203861146514L-664.2070308359866,-1445.527011794905L-637.9363274609498,-1395.2479413035937L-644.1122157662373,-1355.7868455570176ZM-657.7858149605053,-1242.178404705605L-690.7875140872825,-1256.5811642806939L-725.4710023804563,-1269.2962187071405L-684.6756142077404,-1311.1456744243758L-638.7226020664114,-1354.230122195513L-631.2255518193283,-1407.273886873335L-624.5817901307129,-1465.0664091662607L-569.537317429589,-1479.492649783027L-511.4671588742365,-1490.2008177129235L-462.2918956117952,-1472.7856410908478L-416.79135479170355,-1451.794086956967L-415.9655457758208,-1425.4233452754067L-475.58395580123596,-1384.3269252519015L-527.3821543166796,-1343.161022534796L-578.3140075175786,-1325.542548836618L-620.3984274022048,-1283.1880651851657ZM-449.5623879284149,-821.8925435552574L-461.6390923207,-838.0408790765289L-481.68561565565005,-839.8398271572744L-503.2976966811853,-896.3057621017658L-502.1166901409967,-928.8957946244718L-510.59814463082114,-949.6036662762392L-507.49559658313865,-973.3945918537696L-491.17089205581254,-998.5819703787142L-475.154504400619,-1005.4199153966307L-499.2899667106171,-1029.2008423110485L-479.66549370096783,-1075.0139009942488L-484.999326025992,-1186.6907947295886L-501.0330192722535,-1207.6219190712955L-560.6546538585495,-1217.5750874336352L-571.9379353250979,-1250.8928511619538L-564.6141473261715,-1300.0035484443567L-529.4644612127306,-1310.4936260522863L-493.1331108658597,-1319.536544916724L-498.7599081970999,-1348.7795070367697L-466.8975910416392,-1375.608021054968L-432.0147852346832,-1402.636582668768L-372.2841826147117,-1411.878138038156L-310.71502174459914,-1415.9479516179028L-278.9992797284907,-1432.24812752192L-245.1523656726618,-1447.6675930682707L-208.44372908386833,-1443.043131933771L-172.5563068766897,-1436.3245389605802L-147.18748549202462,-1410.767340091499L-124.5460486198428,-1385.4173747248055L-85.97937173318545,-1336.003286524336L-130.1752286656993,-1295.4466088242782L-150.81665612362238,-1249.4191537264217L-147.81340770301847,-1193.6744114582798L-162.06853418060484,-1168.4225993655775L-163.89337985908776,-1118.3541760210942L-206.07957784134183,-1063.2570445353558L-195.2155698901887,-1028.3959709372443L-201.98008860509333,-1016.2215354921492L-256.55155054122594,-981.4590102640493L-305.9785865166937,-968.2239164174691L-322.77564608346904,-946.17864117847L-345.6514950701975,-932.8497558998341L-380.68065373049734,-924.4923897460468L-401.5911767678772,-885.2808619106969L-420.4715925569671,-870.8683927567497L-419.55700871297097,-855.3226493266233L-435.4290841982215,-822.0066527198545Z"></path>
</g>
</svg>
